<svg width="415" height="799" viewBox="0 0 415 799" fill="none" xmlns="http://www.w3.org/2000/svg">
<rect x="4" y="156" width="411" height="5" fill="#D68C45"/>
<rect x="4" y="363" width="411" height="5" fill="#D68C45"/>
<rect x="4" y="579" width="411" height="5" fill="#D68C45"/>
<rect y="788" width="411" height="5" fill="#D68C45"/>
<rect x="10" y="242.378" width="42" height="117" fill="#006D77"/>
<rect x="98.3516" y="218" width="16.0525" height="144.697" transform="rotate(16.459 98.3516 218)" fill="#FFC9B9"/>
<rect x="207" y="690.329" width="147.58" height="94.9224" fill="#2C6E49"/>
<rect x="213.236" y="746.451" width="67.2078" height="36.0289" fill="#8CA496"/>
<rect x="280.444" y="746.451" width="67.2078" height="36.0289" fill="#8CA496"/>
<path d="M280.444 692.36C306.176 681.667 320.86 681.014 347.652 692.36V782.48C320.892 772.157 306.151 772.098 280.444 782.48C253.684 772.157 238.944 772.098 213.236 782.48V692.36C238.968 681.667 253.652 681.014 280.444 692.36Z" fill="#F8F5F0"/>
<path d="M280.79 692.754V782.134" stroke="#8CA496"/>
<path d="M287.372 702.108C307.18 692.959 318.403 692.781 338.644 702.108" stroke="#8CA496"/>
<path d="M220.164 702.108C239.972 692.959 251.196 692.781 271.436 702.108" stroke="#8CA496"/>
<path d="M287.372 715.273C307.18 706.123 318.403 705.946 338.644 715.273" stroke="#8CA496"/>
<path d="M220.164 715.273C239.972 706.123 251.196 705.946 271.436 715.273" stroke="#8CA496"/>
<path d="M288.758 728.437C308.566 719.288 319.789 719.11 340.03 728.437" stroke="#8CA496"/>
<path d="M221.55 728.437C241.358 719.288 252.581 719.11 272.822 728.437" stroke="#8CA496"/>
<path d="M288.758 740.908C308.566 731.759 319.789 731.582 340.03 740.908" stroke="#8CA496"/>
<path d="M221.55 740.908C241.358 731.759 252.581 731.582 272.822 740.908" stroke="#8CA496"/>
<path d="M288.758 754.073C308.566 744.924 319.789 744.746 340.03 754.073" stroke="#8CA496"/>
<path d="M221.55 754.073C241.358 744.924 252.581 744.746 272.822 754.073" stroke="#8CA496"/>
<path d="M288.065 767.237C307.873 758.088 319.096 757.91 339.337 767.237" stroke="#8CA496"/>
<path d="M220.857 767.237C240.665 758.088 251.888 757.91 272.129 767.237" stroke="#8CA496"/>
<rect x="51" y="653.093" width="39" height="136" transform="rotate(-8.98846 51 653.093)" fill="#E07A5F"/>
<rect x="114" y="683.963" width="24" height="100" transform="rotate(-4.69167 114 683.963)" fill="#FFC9B9"/>
<path d="M154 649H184V785H154V649Z" fill="#006D77"/>
<path d="M387.64 699.021C391.672 699.021 395.192 699.725 398.2 701.133C401.208 702.477 403.544 704.461 405.208 707.085C406.936 709.645 407.8 712.717 407.8 716.301C407.8 719.885 406.872 723.085 405.016 725.901C403.224 728.717 400.696 731.117 397.432 733.101C394.232 735.021 390.488 736.525 386.2 737.613V751.629H384.28V736.749C388.568 735.149 391.768 733.389 393.88 731.469C395.992 729.549 397.4 727.469 398.104 725.229C398.872 722.989 399.256 720.621 399.256 718.125C399.256 712.045 398.008 707.661 395.512 704.973C393.016 702.285 389.784 700.941 385.816 700.941C384.28 700.941 382.584 701.165 380.728 701.613C378.936 702.061 377.496 702.989 376.408 704.397C377.624 704.653 378.584 705.197 379.288 706.029C380.056 706.861 380.44 707.949 380.44 709.293C380.44 710.893 379.928 712.173 378.904 713.133C377.88 714.029 376.632 714.477 375.16 714.477C373.688 714.477 372.472 713.997 371.512 713.037C370.552 712.077 370.072 710.861 370.072 709.389C370.072 708.045 370.488 706.797 371.32 705.645C372.152 704.429 373.24 703.373 374.584 702.477C375.928 701.581 377.656 700.781 379.768 700.077C381.944 699.373 384.568 699.021 387.64 699.021ZM385.336 763.149C387 763.149 388.44 763.757 389.656 764.973C390.872 766.189 391.48 767.629 391.48 769.293C391.48 770.957 390.872 772.397 389.656 773.613C388.44 774.829 387 775.437 385.336 775.437C383.672 775.437 382.232 774.829 381.016 773.613C379.8 772.397 379.192 770.957 379.192 769.293C379.192 767.629 379.8 766.189 381.016 764.973C382.232 763.757 383.672 763.149 385.336 763.149Z" fill="#2C6E49"/>
<rect x="340" y="293.135" width="25" height="64" transform="rotate(-9.51938 340 293.135)" fill="#E07A5F"/>
<rect x="365" y="254.403" width="26" height="102" transform="rotate(-9.74887 365 254.403)" fill="#F2CC8F"/>
<rect x="165" y="30.3984" width="22.8381" height="121.728" transform="rotate(-18.0268 165 30.3984)" fill="#FFC9B9"/>
<rect x="206.867" y="1.83496" width="11.73" height="146.357" transform="rotate(-9 206.867 1.83496)" fill="#E07A5F"/>
<rect x="240" y="34.0895" width="27.0805" height="112.159" transform="rotate(-3 240 34.0895)" fill="#006D77"/>
<rect x="279" y="8" width="21" height="137" fill="#4C956C"/>
<rect x="309.995" y="72.8793" width="16.709" height="72.6765" transform="rotate(4.8323 309.995 72.8793)" fill="#F2CC8F"/>
<rect x="336" y="12" width="35" height="136" fill="#006D77"/>
<rect x="374" y="14.8477" width="14" height="136" transform="rotate(-7.58362 374 14.8477)" fill="#FFC9B9"/>
<path d="M111.13 317.97C112.763 317.97 114.187 318.203 115.4 318.67C116.613 319.137 117.617 319.79 118.41 320.63C119.297 321.563 119.903 322.777 120.23 324.27C120.557 325.763 120.72 327.607 120.72 329.8V348.49C120.72 350.45 121.117 351.78 121.91 352.48C122.75 353.18 124.127 353.53 126.04 353.53V355C125.247 354.953 124.033 354.907 122.4 354.86C120.767 354.767 119.18 354.72 117.64 354.72C116.1 354.72 114.583 354.767 113.09 354.86C111.643 354.907 110.547 354.953 109.8 355V353.53C111.48 353.53 112.67 353.18 113.37 352.48C114.07 351.78 114.42 350.45 114.42 348.49V328.26C114.42 326.813 114.327 325.483 114.14 324.27C113.953 323.057 113.487 322.077 112.74 321.33C111.993 320.583 110.78 320.21 109.1 320.21C107.28 320.21 105.647 320.77 104.2 321.89C102.8 323.01 101.68 324.55 100.84 326.51C100.047 328.423 99.65 330.57 99.65 332.95V348.49C99.65 350.45 100 351.78 100.7 352.48C101.4 353.18 102.59 353.53 104.27 353.53V355C103.523 354.953 102.403 354.907 100.91 354.86C99.4633 354.767 97.97 354.72 96.43 354.72C94.89 354.72 93.3033 354.767 91.67 354.86C90.0367 354.907 88.8233 354.953 88.03 355V353.53C89.9433 353.53 91.2967 353.18 92.09 352.48C92.93 351.78 93.35 350.45 93.35 348.49V326.58C93.35 324.48 92.9767 322.94 92.23 321.96C91.4833 320.933 90.0833 320.42 88.03 320.42V318.95C89.5233 319.09 90.97 319.16 92.37 319.16C93.7233 319.16 95.0067 319.09 96.22 318.95C97.48 318.763 98.6233 318.507 99.65 318.18V326.44C100.863 323.407 102.52 321.237 104.62 319.93C106.72 318.623 108.89 317.97 111.13 317.97ZM132.2 317.97C133.833 317.97 135.257 318.203 136.47 318.67C137.683 319.137 138.687 319.79 139.48 320.63C140.367 321.563 140.973 322.777 141.3 324.27C141.627 325.763 141.79 327.607 141.79 329.8V348.49C141.79 350.45 142.187 351.78 142.98 352.48C143.82 353.18 145.197 353.53 147.11 353.53V355C146.317 354.953 145.103 354.907 143.47 354.86C141.837 354.767 140.25 354.72 138.71 354.72C137.17 354.72 135.653 354.767 134.16 354.86C132.713 354.907 131.617 354.953 130.87 355V353.53C132.55 353.53 133.74 353.18 134.44 352.48C135.14 351.78 135.49 350.45 135.49 348.49V328.26C135.49 326.813 135.397 325.483 135.21 324.27C135.023 323.057 134.557 322.077 133.81 321.33C133.063 320.583 131.85 320.21 130.17 320.21C128.35 320.21 126.717 320.77 125.27 321.89C123.87 323.01 122.75 324.527 121.91 326.44C121.117 328.353 120.72 330.5 120.72 332.88L120.51 326.37C121.77 323.15 123.473 320.957 125.62 319.79C127.767 318.577 129.96 317.97 132.2 317.97ZM160.109 355.49C158.195 355.49 156.539 355.14 155.139 354.44C153.739 353.693 152.665 352.667 151.919 351.36C151.219 350.053 150.869 348.537 150.869 346.81C150.869 344.757 151.335 343.077 152.269 341.77C153.249 340.463 154.485 339.413 155.979 338.62C157.472 337.827 159.035 337.173 160.669 336.66C162.349 336.1 163.935 335.587 165.429 335.12C166.922 334.607 168.135 334.023 169.069 333.37C170.049 332.717 170.539 331.853 170.539 330.78V326.44C170.539 324.48 170.235 322.987 169.629 321.96C169.069 320.933 168.299 320.257 167.319 319.93C166.339 319.557 165.242 319.37 164.029 319.37C162.862 319.37 161.602 319.533 160.249 319.86C158.942 320.187 157.892 320.863 157.099 321.89C157.985 322.077 158.755 322.543 159.409 323.29C160.062 324.037 160.389 324.993 160.389 326.16C160.389 327.327 160.015 328.26 159.269 328.96C158.522 329.613 157.565 329.94 156.399 329.94C155.045 329.94 154.042 329.52 153.389 328.68C152.782 327.793 152.479 326.813 152.479 325.74C152.479 324.527 152.782 323.547 153.389 322.8C153.995 322.053 154.765 321.353 155.699 320.7C156.772 319.953 158.149 319.323 159.829 318.81C161.555 318.25 163.492 317.97 165.639 317.97C167.552 317.97 169.185 318.203 170.539 318.67C171.892 319.09 173.012 319.72 173.899 320.56C175.112 321.68 175.905 323.057 176.279 324.69C176.652 326.277 176.839 328.19 176.839 330.43V349.89C176.839 351.057 177.002 351.897 177.329 352.41C177.702 352.923 178.262 353.18 179.009 353.18C179.522 353.18 180.012 353.063 180.479 352.83C180.945 352.597 181.505 352.223 182.159 351.71L182.929 352.9C181.949 353.647 181.015 354.277 180.129 354.79C179.242 355.257 178.052 355.49 176.559 355.49C175.205 355.49 174.085 355.257 173.199 354.79C172.312 354.323 171.635 353.647 171.169 352.76C170.749 351.827 170.539 350.66 170.539 349.26C169.279 351.36 167.762 352.923 165.989 353.95C164.262 354.977 162.302 355.49 160.109 355.49ZM162.629 352.69C164.169 352.69 165.592 352.247 166.899 351.36C168.252 350.473 169.465 349.143 170.539 347.37V333.65C169.979 334.443 169.162 335.12 168.089 335.68C167.015 336.193 165.849 336.73 164.589 337.29C163.329 337.803 162.115 338.433 160.949 339.18C159.829 339.88 158.895 340.813 158.149 341.98C157.402 343.147 157.029 344.663 157.029 346.53C157.029 348.397 157.519 349.89 158.499 351.01C159.525 352.13 160.902 352.69 162.629 352.69ZM196.022 300.12V348.49C196.022 350.45 196.372 351.78 197.072 352.48C197.772 353.18 198.962 353.53 200.642 353.53V355C199.895 354.953 198.775 354.907 197.282 354.86C195.835 354.767 194.365 354.72 192.872 354.72C191.285 354.72 189.675 354.767 188.042 354.86C186.409 354.907 185.195 354.953 184.402 355V353.53C186.315 353.53 187.669 353.18 188.462 352.48C189.302 351.78 189.722 350.45 189.722 348.49V308.52C189.722 306.42 189.349 304.88 188.602 303.9C187.855 302.873 186.455 302.36 184.402 302.36V300.89C185.895 301.03 187.342 301.1 188.742 301.1C190.095 301.1 191.379 301.03 192.592 300.89C193.852 300.703 194.995 300.447 196.022 300.12ZM218.282 318.95V320.35C217.115 320.443 216.019 320.77 214.992 321.33C213.965 321.843 212.962 322.613 211.982 323.64L202.112 334L203.092 332.04L216.112 349.89C216.905 350.963 217.652 351.803 218.352 352.41C219.099 353.017 219.985 353.39 221.012 353.53V355C220.499 354.953 219.682 354.907 218.562 354.86C217.489 354.767 216.415 354.72 215.342 354.72C213.895 354.72 212.425 354.767 210.932 354.86C209.439 354.907 208.319 354.953 207.572 355V353.53C208.505 353.53 209.159 353.297 209.532 352.83C209.905 352.363 209.835 351.803 209.322 351.15L201.272 339.39C200.385 338.13 199.569 337.313 198.822 336.94C198.122 336.567 197.095 336.357 195.742 336.31V334.91C197.235 334.723 198.449 334.42 199.382 334C200.315 333.533 201.202 332.857 202.042 331.97L207.222 326.58C208.715 325.04 209.462 323.827 209.462 322.94C209.462 322.007 208.972 321.353 207.992 320.98C207.059 320.56 205.822 320.35 204.282 320.35V318.95C205.495 318.997 206.849 319.067 208.342 319.16C209.882 319.207 211.165 319.23 212.192 319.23C212.985 319.23 213.755 319.23 214.502 319.23C215.249 319.183 215.949 319.137 216.602 319.09C217.255 319.043 217.815 318.997 218.282 318.95ZM238.546 317.97C242.653 317.97 245.849 319.23 248.136 321.75C250.469 324.223 251.636 328.097 251.636 333.37H226.926L226.856 332.04H244.916C245.009 329.753 244.823 327.653 244.356 325.74C243.889 323.78 243.143 322.217 242.116 321.05C241.136 319.883 239.853 319.3 238.266 319.3C236.119 319.3 234.206 320.373 232.526 322.52C230.893 324.667 229.913 328.073 229.586 332.74L229.796 333.02C229.703 333.72 229.633 334.49 229.586 335.33C229.539 336.17 229.516 337.01 229.516 337.85C229.516 341.023 230.029 343.753 231.056 346.04C232.083 348.327 233.413 350.077 235.046 351.29C236.726 352.457 238.453 353.04 240.226 353.04C241.626 353.04 242.956 352.83 244.216 352.41C245.476 351.943 246.643 351.197 247.716 350.17C248.789 349.143 249.723 347.767 250.516 346.04L251.916 346.6C251.403 348.14 250.563 349.633 249.396 351.08C248.229 352.527 246.759 353.717 244.986 354.65C243.213 355.537 241.159 355.98 238.826 355.98C235.466 355.98 232.573 355.21 230.146 353.67C227.766 352.13 225.923 350.007 224.616 347.3C223.356 344.547 222.726 341.397 222.726 337.85C222.726 333.743 223.379 330.22 224.686 327.28C225.993 324.293 227.836 322.007 230.216 320.42C232.596 318.787 235.373 317.97 238.546 317.97ZM269.476 317.97C271.343 317.97 272.929 318.273 274.236 318.88C275.543 319.487 276.499 320.047 277.106 320.56C278.646 321.82 279.579 320.98 279.906 318.04H281.516C281.423 319.347 281.353 320.91 281.306 322.73C281.259 324.503 281.236 326.907 281.236 329.94H279.626C279.346 328.213 278.856 326.533 278.156 324.9C277.503 323.267 276.523 321.937 275.216 320.91C273.909 319.837 272.206 319.3 270.106 319.3C268.473 319.3 267.096 319.767 265.976 320.7C264.903 321.587 264.366 322.917 264.366 324.69C264.366 326.09 264.786 327.303 265.626 328.33C266.466 329.31 267.563 330.243 268.916 331.13C270.269 331.97 271.739 332.903 273.326 333.93C275.099 335.05 276.709 336.193 278.156 337.36C279.603 338.527 280.746 339.81 281.586 341.21C282.473 342.61 282.916 344.267 282.916 346.18C282.916 348.327 282.356 350.123 281.236 351.57C280.116 353.017 278.646 354.113 276.826 354.86C275.053 355.607 273.093 355.98 270.946 355.98C269.919 355.98 268.939 355.887 268.006 355.7C267.119 355.56 266.256 355.327 265.416 355C264.949 354.767 264.459 354.487 263.946 354.16C263.479 353.833 263.013 353.483 262.546 353.11C262.079 352.737 261.659 352.76 261.286 353.18C260.913 353.553 260.633 354.323 260.446 355.49H258.836C258.929 353.997 258.999 352.177 259.046 350.03C259.093 347.883 259.116 345.037 259.116 341.49H260.726C261.053 344.103 261.519 346.39 262.126 348.35C262.733 350.31 263.689 351.85 264.996 352.97C266.303 354.043 268.123 354.58 270.456 354.58C271.389 354.58 272.323 354.37 273.256 353.95C274.236 353.53 275.053 352.83 275.706 351.85C276.359 350.87 276.686 349.563 276.686 347.93C276.686 345.877 275.939 344.197 274.446 342.89C272.953 341.583 271.063 340.207 268.776 338.76C267.096 337.687 265.509 336.613 264.016 335.54C262.569 334.467 261.379 333.253 260.446 331.9C259.559 330.547 259.116 328.913 259.116 327C259.116 324.9 259.583 323.197 260.516 321.89C261.496 320.537 262.779 319.557 264.366 318.95C265.953 318.297 267.656 317.97 269.476 317.97ZM315.626 355.49C313.713 355.49 312.056 355.14 310.656 354.44C309.256 353.693 308.183 352.667 307.436 351.36C306.736 350.053 306.386 348.537 306.386 346.81C306.386 344.757 306.853 343.077 307.786 341.77C308.766 340.463 310.003 339.413 311.496 338.62C312.99 337.827 314.553 337.173 316.186 336.66C317.866 336.1 319.453 335.587 320.946 335.12C322.44 334.607 323.653 334.023 324.586 333.37C325.566 332.717 326.056 331.853 326.056 330.78V326.44C326.056 324.48 325.753 322.987 325.146 321.96C324.586 320.933 323.816 320.257 322.836 319.93C321.856 319.557 320.76 319.37 319.546 319.37C318.38 319.37 317.12 319.533 315.766 319.86C314.46 320.187 313.41 320.863 312.616 321.89C313.503 322.077 314.273 322.543 314.926 323.29C315.58 324.037 315.906 324.993 315.906 326.16C315.906 327.327 315.533 328.26 314.786 328.96C314.04 329.613 313.083 329.94 311.916 329.94C310.563 329.94 309.56 329.52 308.906 328.68C308.3 327.793 307.996 326.813 307.996 325.74C307.996 324.527 308.3 323.547 308.906 322.8C309.513 322.053 310.283 321.353 311.216 320.7C312.29 319.953 313.666 319.323 315.346 318.81C317.073 318.25 319.01 317.97 321.156 317.97C323.07 317.97 324.703 318.203 326.056 318.67C327.41 319.09 328.53 319.72 329.416 320.56C330.63 321.68 331.423 323.057 331.796 324.69C332.17 326.277 332.356 328.19 332.356 330.43V349.89C332.356 351.057 332.52 351.897 332.846 352.41C333.22 352.923 333.78 353.18 334.526 353.18C335.04 353.18 335.53 353.063 335.996 352.83C336.463 352.597 337.023 352.223 337.676 351.71L338.446 352.9C337.466 353.647 336.533 354.277 335.646 354.79C334.76 355.257 333.57 355.49 332.076 355.49C330.723 355.49 329.603 355.257 328.716 354.79C327.83 354.323 327.153 353.647 326.686 352.76C326.266 351.827 326.056 350.66 326.056 349.26C324.796 351.36 323.28 352.923 321.506 353.95C319.78 354.977 317.82 355.49 315.626 355.49ZM318.146 352.69C319.686 352.69 321.11 352.247 322.416 351.36C323.77 350.473 324.983 349.143 326.056 347.37V333.65C325.496 334.443 324.68 335.12 323.606 335.68C322.533 336.193 321.366 336.73 320.106 337.29C318.846 337.803 317.633 338.433 316.466 339.18C315.346 339.88 314.413 340.813 313.666 341.98C312.92 343.147 312.546 344.663 312.546 346.53C312.546 348.397 313.036 349.89 314.016 351.01C315.043 352.13 316.42 352.69 318.146 352.69Z" fill="#2C6E49"/>
<rect x="228.328" y="575.144" width="16.663" height="161.869" transform="rotate(-90.4731 228.328 575.144)" fill="#FFC9B9"/>
<rect x="256.893" y="553.72" width="42.2115" height="116.381" transform="rotate(-90.4731 256.893 553.72)" fill="#006D77"/>
<rect x="227.18" y="506.111" width="21.7753" height="154.418" transform="rotate(-90.4731 227.18 506.111)" fill="#F2CC8F"/>
<rect x="265.267" y="479.172" width="28.1788" height="120.369" transform="rotate(-90.4731 265.267 479.172)" fill="#E07A5F"/>
<path d="M14.17 541.1C13.1433 541.1 12.3033 540.89 11.65 540.47C10.9967 540.05 10.46 539.513 10.04 538.86C9.57333 538.067 9.24667 537.25 9.06 536.41C8.92 535.523 8.85 534.8 8.85 534.24C8.85 531.953 9.43333 529.877 10.6 528.01C11.7667 526.143 13.5867 524.627 16.06 523.46L16.69 524.72C15.2433 525.327 13.9833 526.283 12.91 527.59C11.8833 528.897 11.37 530.227 11.37 531.58C11.37 532.14 11.44 532.63 11.58 533.05C12.3267 532.443 13.19 532.14 14.17 532.14C15.3833 532.14 16.4333 532.537 17.32 533.33C18.2067 534.123 18.65 535.22 18.65 536.62C18.65 537.927 18.2067 539 17.32 539.84C16.4333 540.68 15.3833 541.1 14.17 541.1ZM26.07 541.1C25.0433 541.1 24.2033 540.89 23.55 540.47C22.8967 540.05 22.36 539.513 21.94 538.86C21.4733 538.067 21.1467 537.25 20.96 536.41C20.82 535.523 20.75 534.8 20.75 534.24C20.75 531.953 21.3333 529.877 22.5 528.01C23.6667 526.143 25.4867 524.627 27.96 523.46L28.59 524.72C27.1433 525.327 25.8833 526.283 24.81 527.59C23.7833 528.897 23.27 530.227 23.27 531.58C23.27 532.14 23.34 532.63 23.48 533.05C24.2267 532.443 25.09 532.14 26.07 532.14C27.2833 532.14 28.3333 532.537 29.22 533.33C30.1067 534.123 30.55 535.22 30.55 536.62C30.55 537.927 30.1067 539 29.22 539.84C28.3333 540.68 27.2833 541.1 26.07 541.1ZM48.0057 587.16C45.5324 587.16 43.199 586.903 41.0057 586.39C38.8124 585.877 37.039 585.06 35.6857 583.94C34.379 582.867 33.7257 581.49 33.7257 579.81C33.7257 578.177 34.379 576.777 35.6857 575.61C36.9924 574.443 38.7657 573.557 41.0057 572.95L41.4257 574.07C40.399 574.397 39.5824 575.05 38.9757 576.03C38.369 577.01 38.0657 578.107 38.0657 579.32C38.0657 581.467 39.0457 583.1 41.0057 584.22C43.0124 585.387 45.6024 585.97 48.7757 585.97C50.8757 585.97 52.929 585.69 54.9357 585.13C56.9424 584.617 58.599 583.73 59.9057 582.47C61.2124 581.21 61.8657 579.553 61.8657 577.5C61.8657 575.96 61.3057 574.7 60.1857 573.72C59.1124 572.693 56.9657 572.18 53.7457 572.18H48.5657C47.0724 572.18 45.6257 572.063 44.2257 571.83C42.8257 571.597 41.6824 571.107 40.7957 570.36C39.909 569.613 39.4657 568.47 39.4657 566.93C39.4657 565.343 40.119 563.827 41.4257 562.38C42.7324 560.887 45.1357 559.37 48.6357 557.83L49.4757 558.46C47.889 559.3 46.5124 560.163 45.3457 561.05C44.179 561.89 43.5957 562.893 43.5957 564.06C43.5957 565.553 44.7157 566.3 46.9557 566.3H55.7057C57.6657 566.3 59.4624 566.58 61.0957 567.14C62.7757 567.7 64.129 568.587 65.1557 569.8C66.1824 571.013 66.6957 572.6 66.6957 574.56C66.6957 576.753 65.9957 578.807 64.5957 580.72C63.1957 582.633 61.0957 584.173 58.2957 585.34C55.5424 586.553 52.1124 587.16 48.0057 587.16ZM48.3557 559.09C46.069 559.09 43.9924 558.717 42.1257 557.97C40.259 557.177 38.789 555.963 37.7157 554.33C36.6424 552.697 36.1057 550.597 36.1057 548.03C36.1057 545.463 36.6424 543.363 37.7157 541.73C38.789 540.097 40.259 538.907 42.1257 538.16C43.9924 537.367 46.069 536.97 48.3557 536.97C50.689 536.97 52.7657 537.367 54.5857 538.16C56.4524 538.907 57.9224 540.097 58.9957 541.73C60.069 543.363 60.6057 545.463 60.6057 548.03C60.6057 550.597 60.069 552.697 58.9957 554.33C57.9224 555.963 56.4524 557.177 54.5857 557.97C52.7657 558.717 50.689 559.09 48.3557 559.09ZM48.3557 557.83C50.129 557.83 51.5057 557.13 52.4857 555.73C53.5124 554.33 54.0257 551.763 54.0257 548.03C54.0257 544.297 53.5124 541.73 52.4857 540.33C51.5057 538.93 50.129 538.23 48.3557 538.23C46.629 538.23 45.2524 538.93 44.2257 540.33C43.199 541.73 42.6857 544.297 42.6857 548.03C42.6857 551.763 43.199 554.33 44.2257 555.73C45.2524 557.13 46.629 557.83 48.3557 557.83ZM58.4357 542.78L57.1757 542.29C57.829 540.703 58.949 539.303 60.5357 538.09C62.1224 536.877 63.779 536.27 65.5057 536.27C66.719 536.27 67.699 536.62 68.4457 537.32C69.1924 537.973 69.5657 538.977 69.5657 540.33C69.5657 541.777 69.169 542.803 68.3757 543.41C67.629 543.97 66.859 544.25 66.0657 544.25C65.3657 544.25 64.7124 544.017 64.1057 543.55C63.499 543.037 63.149 542.243 63.0557 541.17C62.9624 540.097 63.289 538.72 64.0357 537.04L64.9457 537.25C62.9857 537.997 61.5857 538.79 60.7457 539.63C59.9057 540.423 59.1357 541.473 58.4357 542.78ZM88.5745 536.97C91.5612 536.97 94.2445 537.623 96.6245 538.93C99.0045 540.237 100.895 542.29 102.295 545.09C103.741 547.89 104.465 551.53 104.465 556.01C104.465 560.49 103.741 564.13 102.295 566.93C100.895 569.683 99.0045 571.713 96.6245 573.02C94.2445 574.327 91.5612 574.98 88.5745 574.98C85.6345 574.98 82.9512 574.327 80.5245 573.02C78.1445 571.713 76.2312 569.683 74.7845 566.93C73.3845 564.13 72.6845 560.49 72.6845 556.01C72.6845 551.53 73.3845 547.89 74.7845 545.09C76.2312 542.29 78.1445 540.237 80.5245 538.93C82.9512 537.623 85.6345 536.97 88.5745 536.97ZM88.5745 538.37C85.9145 538.37 83.7212 539.747 81.9945 542.5C80.3145 545.253 79.4745 549.757 79.4745 556.01C79.4745 562.263 80.3145 566.767 81.9945 569.52C83.7212 572.227 85.9145 573.58 88.5745 573.58C91.2345 573.58 93.4045 572.227 95.0845 569.52C96.8112 566.767 97.6745 562.263 97.6745 556.01C97.6745 549.757 96.8112 545.253 95.0845 542.5C93.4045 539.747 91.2345 538.37 88.5745 538.37ZM126.924 536.97C129.911 536.97 132.594 537.623 134.974 538.93C137.354 540.237 139.244 542.29 140.644 545.09C142.091 547.89 142.814 551.53 142.814 556.01C142.814 560.49 142.091 564.13 140.644 566.93C139.244 569.683 137.354 571.713 134.974 573.02C132.594 574.327 129.911 574.98 126.924 574.98C123.984 574.98 121.301 574.327 118.874 573.02C116.494 571.713 114.581 569.683 113.134 566.93C111.734 564.13 111.034 560.49 111.034 556.01C111.034 551.53 111.734 547.89 113.134 545.09C114.581 542.29 116.494 540.237 118.874 538.93C121.301 537.623 123.984 536.97 126.924 536.97ZM126.924 538.37C124.264 538.37 122.071 539.747 120.344 542.5C118.664 545.253 117.824 549.757 117.824 556.01C117.824 562.263 118.664 566.767 120.344 569.52C122.071 572.227 124.264 573.58 126.924 573.58C129.584 573.58 131.754 572.227 133.434 569.52C135.161 566.767 136.024 562.263 136.024 556.01C136.024 549.757 135.161 545.253 133.434 542.5C131.754 539.747 129.584 538.37 126.924 538.37ZM179.974 519.12V566.37C179.974 568.47 180.347 570.033 181.094 571.06C181.887 572.04 183.287 572.53 185.294 572.53V574C183.847 573.86 182.4 573.79 180.954 573.79C179.6 573.79 178.294 573.86 177.034 574C175.82 574.14 174.7 574.397 173.674 574.77V527.52C173.674 525.42 173.3 523.88 172.554 522.9C171.807 521.873 170.407 521.36 168.354 521.36V519.89C169.847 520.03 171.294 520.1 172.694 520.1C174.047 520.1 175.33 520.03 176.544 519.89C177.804 519.703 178.947 519.447 179.974 519.12ZM165.274 536.97C167.327 536.97 169.24 537.46 171.014 538.44C172.834 539.42 174.047 541.1 174.654 543.48L173.744 544.18C173.09 542.22 172.064 540.797 170.664 539.91C169.31 539.023 167.7 538.58 165.834 538.58C163.08 538.58 160.77 540.003 158.904 542.85C157.084 545.697 156.197 550.083 156.244 556.01C156.244 559.79 156.594 562.94 157.294 565.46C158.04 567.933 159.114 569.8 160.514 571.06C161.96 572.273 163.71 572.88 165.764 572.88C167.724 572.88 169.497 572.04 171.084 570.36C172.67 568.68 173.627 566.207 173.954 562.94L174.794 563.92C174.42 567.467 173.277 570.197 171.364 572.11C169.497 574.023 166.954 574.98 163.734 574.98C160.84 574.98 158.297 574.28 156.104 572.88C153.957 571.48 152.3 569.38 151.134 566.58C150.014 563.78 149.454 560.257 149.454 556.01C149.454 551.763 150.177 548.24 151.624 545.44C153.117 542.593 155.054 540.47 157.434 539.07C159.86 537.67 162.474 536.97 165.274 536.97ZM206.928 523.46C207.954 523.46 208.794 523.67 209.448 524.09C210.101 524.51 210.638 525.047 211.058 525.7C211.571 526.447 211.898 527.263 212.038 528.15C212.178 529.037 212.248 529.76 212.248 530.32C212.248 532.607 211.664 534.683 210.498 536.55C209.331 538.417 207.511 539.933 205.038 541.1L204.408 539.84C205.854 539.233 207.091 538.277 208.118 536.97C209.191 535.663 209.728 534.333 209.728 532.98C209.728 532.42 209.658 531.93 209.518 531.51C208.771 532.117 207.908 532.42 206.928 532.42C205.714 532.42 204.664 532.023 203.778 531.23C202.891 530.437 202.448 529.34 202.448 527.94C202.448 526.633 202.891 525.56 203.778 524.72C204.664 523.88 205.714 523.46 206.928 523.46ZM195.028 523.46C196.054 523.46 196.894 523.67 197.548 524.09C198.201 524.51 198.738 525.047 199.158 525.7C199.671 526.447 199.998 527.263 200.138 528.15C200.278 529.037 200.348 529.76 200.348 530.32C200.348 532.607 199.764 534.683 198.598 536.55C197.431 538.417 195.611 539.933 193.138 541.1L192.508 539.84C193.954 539.233 195.191 538.277 196.218 536.97C197.291 535.663 197.828 534.333 197.828 532.98C197.828 532.42 197.758 531.93 197.618 531.51C196.871 532.117 196.008 532.42 195.028 532.42C193.814 532.42 192.764 532.023 191.878 531.23C190.991 530.437 190.548 529.34 190.548 527.94C190.548 526.633 190.991 525.56 191.878 524.72C192.764 523.88 193.814 523.46 195.028 523.46Z" fill="#2C6E49"/>
<rect x="8" y="653.562" width="24" height="136" transform="rotate(-10.9578 8 653.562)" fill="#4C956C"/>
</svg>
